<?xml version="1.0" encoding="UTF-8"?><svg xmlns="http://www.w3.org/2000/svg" viewBox="0 0 517.48 337.7"><defs><style>.d{fill:#00ccbf;}.e{fill:#fff;}.f{fill:#ffd489;}.g{fill:#ff8486;}.h{fill:#278fad;}</style></defs><g id="a"/><g id="b"><g id="c"><g><rect class="h" x="0" y="44.69" width="201.68" height="79.17" rx="39.58" ry="39.58"/><rect class="f" x="0" y="142.11" width="240.44" height="79.17" rx="39.58" ry="39.58"/><rect class="g" x="0" y="239.54" width="270.75" height="79.17" rx="39.58" ry="39.58"/><g><path class="d" d="M355.71,237.71L514.49,23.94c7.35-9.9,.29-23.94-12.04-23.94H208.97c-12.33,0-19.39,14.05-12.04,23.94l158.78,213.77Z"/><path class="d" d="M319.89,137.72h71.64v169.49c0,16.83-13.66,30.49-30.49,30.49h-10.65c-16.83,0-30.49-13.66-30.49-30.49V137.72h0Z"/></g><path class="e" d="M348.96,123.97c-1.42-1.62-2.13-3.85-2.13-6.69,0-7.43,1.35-13.71,4.05-18.85,2.7-5.13,6.62-10.74,11.76-16.82,4.05-4.86,7.03-8.92,8.92-12.16,1.89-3.24,2.84-6.89,2.84-10.95,0-4.46-1.66-8.01-4.96-10.64-3.31-2.63-7.8-3.95-13.48-3.95-4.87,0-9.53,1.05-13.99,3.14-4.46,2.1-9.66,5.1-15.61,9.02-3.38,1.89-6.15,2.84-8.31,2.84-2.3,0-4.29-1.05-5.98-3.14-1.69-2.09-2.53-4.56-2.53-7.4,0-3.92,1.62-7.09,4.86-9.53,5.68-4.86,12.37-8.68,20.07-11.45,7.7-2.77,15.47-4.16,23.31-4.16,8.24,0,15.57,1.42,21.99,4.26,6.42,2.84,11.42,6.76,15,11.76,3.58,5,5.37,10.74,5.37,17.23,0,7.03-1.69,13.14-5.07,18.34-3.38,5.2-8.31,11.05-14.8,17.53-5.54,5.68-9.7,10.44-12.47,14.29s-4.49,8.21-5.17,13.07c-.4,2.16-1.32,3.82-2.74,4.97-1.42,1.15-3.21,1.72-5.37,1.72-2.3,0-4.15-.81-5.57-2.43Zm-4.76,40.64c-2.84-2.9-4.26-6.52-4.26-10.84s1.42-7.94,4.26-10.84c2.84-2.9,6.42-4.36,10.74-4.36s7.9,1.45,10.74,4.36c2.84,2.91,4.26,6.52,4.26,10.84s-1.45,7.94-4.36,10.84c-2.91,2.91-6.46,4.36-10.64,4.36s-7.91-1.45-10.74-4.36Z"/></g></g></g></svg>